<svg xmlns="http://www.w3.org/2000/svg" width="200" height="200" viewBox="0 0 200 200">
  <rect width="200" height="200" rx="30" fill="#4F46E5"/>
  <path d="M149.5 75.75C147.5 73.75 144.75 72.5 141.75 72.5H112.5V60C112.5 52.5 106.25 46.25 98.75 46.25C91.25 46.25 85 52.5 85 60V72.5H58.25C52 72.5 47.5 77 47.5 83.25C47.5 89.5 52 94 58.25 94H85V106.5C85 114 91.25 120.25 98.75 120.25C106.25 120.25 112.5 114 112.5 106.5V94H141.75C144.75 94 147.5 92.75 149.5 90.75C153.75 86.5 153.75 80 149.5 75.75Z" fill="white"/>
  <path d="M35 125C35 123.34 36.3431 122 38 122H65C66.6569 122 68 123.34 68 125C68 126.66 66.6569 128 65 128H38C36.3431 128 35 126.66 35 125Z" fill="white"/>
  <path d="M40 140C40 138.34 41.3431 137 43 137H95C96.6569 137 98 138.34 98 140C98 141.66 96.6569 143 95 143H43C41.3431 143 40 141.66 40 140Z" fill="white"/>
  <path d="M55 155C55 153.34 56.3431 152 58 152H142C143.657 152 145 153.34 145 155C145 156.66 143.657 158 142 158H58C56.3431 158 55 156.66 55 155Z" fill="white"/>
</svg>
